<svg width="513" height="512" viewBox="0 0 513 512" fill="none" xmlns="http://www.w3.org/2000/svg">
<circle cx="254.023" cy="261.286" r="232.143" fill="#FFFCF0"/>
<path d="M386.912 269.479C386.912 256.93 389.313 246.55 394.116 238.339C399.074 230.128 405.348 224.009 412.939 219.981C420.685 215.953 428.741 213.939 437.107 213.939V243.684C429.981 243.684 423.242 244.536 416.89 246.241C410.693 247.945 405.658 250.733 401.785 254.606C397.912 258.479 395.975 263.437 395.975 269.479H386.912ZM365.3 330.597V214.404H395.975V330.597H365.3Z" fill="#171B54"/>
<path d="M236.19 377.074V214.404H265.006L266.865 235.783V377.074H236.19ZM301.955 333.385C292.195 333.385 283.906 330.906 277.09 325.949C270.428 320.991 265.315 313.942 261.752 304.802C258.189 295.661 256.407 284.894 256.407 272.5C256.407 259.951 258.189 249.184 261.752 240.198C265.315 231.058 270.428 224.009 277.09 219.051C283.906 214.094 292.195 211.615 301.955 211.615C312.645 211.615 321.863 214.094 329.609 219.051C337.51 224.009 343.629 231.058 347.967 240.198C352.305 249.184 354.474 259.951 354.474 272.5C354.474 284.894 352.305 295.661 347.967 304.802C343.629 313.942 337.51 320.991 329.609 325.949C321.863 330.906 312.645 333.385 301.955 333.385ZM294.054 305.267C299.631 305.267 304.511 303.872 308.694 301.084C313.032 298.295 316.44 294.422 318.919 289.464C321.398 284.507 322.637 278.852 322.637 272.5C322.637 266.148 321.398 260.494 318.919 255.536C316.595 250.578 313.264 246.783 308.926 244.149C304.744 241.36 299.863 239.966 294.286 239.966C289.019 239.966 284.294 241.36 280.111 244.149C275.928 246.938 272.674 250.811 270.35 255.768C268.027 260.571 266.865 266.148 266.865 272.5C266.865 278.852 268.027 284.507 270.35 289.464C272.674 294.422 275.85 298.295 279.878 301.084C284.061 303.872 288.786 305.267 294.054 305.267Z" fill="#171B54"/>
<path d="M86.0229 330.596V167.926H138.077C154.654 167.926 169.295 171.412 181.998 178.384C194.857 185.355 204.85 194.961 211.976 207.2C219.258 219.284 222.898 233.304 222.898 249.261C222.898 265.064 219.258 279.084 211.976 291.323C204.85 303.562 194.857 313.168 181.998 320.139C169.295 327.111 154.654 330.596 138.077 330.596H86.0229ZM117.86 300.851H138.077C145.514 300.851 152.408 299.534 158.76 296.901C165.112 294.267 170.611 290.626 175.259 285.978C180.062 281.331 183.78 275.908 186.414 269.711C189.047 263.359 190.364 256.543 190.364 249.261C190.364 241.98 189.047 235.241 186.414 229.044C183.78 222.692 180.062 217.192 175.259 212.544C170.611 207.897 165.112 204.256 158.76 201.622C152.408 198.989 145.514 197.672 138.077 197.672H117.86V300.851Z" fill="#171B54"/>
</svg>
